<svg viewBox="0 0 294 345" xmlns="http://www.w3.org/2000/svg"><path d="m249.381 112.307a29.187 29.187 0 0 0 -17.329 5.681c-.945-23.667-12.926-45.266-32.832-59.612l7.718-13.923c3.952-7.131 1.366-16.147-5.764-20.099a14.802 14.802 0 0 0 -7.162-1.855 14.795 14.795 0 0 0 -12.936 7.618l-8.459 15.26c-8.25-2.428-16.833-3.654-25.615-3.654-8.781 0-17.365 1.227-25.615 3.654l-8.459-15.26a14.798 14.798 0 0 0 -12.936-7.618c-2.497 0-4.974.641-7.164 1.855-7.13 3.953-9.716 12.97-5.763 20.099l7.717 13.922c-19.91 14.348-31.889 35.945-32.833 59.614a29.187 29.187 0 0 0 -17.329-5.681c-16.185 0-29.352 13.167-29.352 29.351v70.751c0 16.185 13.167 29.352 29.352 29.352a29.183 29.183 0 0 0 17.26-5.633v1.251c0 15.194 12.301 27.569 27.468 27.686v28.082c0 16.185 13.167 29.352 29.351 29.352 13.486 0 24.877-9.142 28.3-21.554 3.424 12.412 14.814 21.554 28.3 21.554 16.185 0 29.352-13.167 29.352-29.352v-28.082c15.167-.117 27.469-12.492 27.469-27.686v-1.251a29.184 29.184 0 0 0 17.26 5.632c16.184 0 29.351-13.167 29.351-29.352v-70.751c.001-16.184-13.167-29.351-29.35-29.351z" fill="#fff"/><path d="m249.38 121.682c-11.033 0-19.977 8.944-19.977 19.977v70.751c0 11.033 8.944 19.977 19.977 19.977s19.977-8.944 19.977-19.977v-70.751c0-11.033-8.944-19.977-19.977-19.977zm-204.76 0c11.033 0 19.977 8.944 19.977 19.977v70.751c0 11.033-8.944 19.977-19.977 19.977s-19.977-8.944-19.977-19.977v-70.751c0-11.033 8.944-19.977 19.977-19.977zm26.635 5.91v109.788c0 10.113 8.199 18.312 18.312 18.312h9.156v37.456c0 11.033 8.944 19.977 19.977 19.977s19.977-8.944 19.977-19.977v-37.456h16.647v37.456c0 11.033 8.944 19.977 19.977 19.977s19.977-8.944 19.977-19.977v-37.456h9.156c10.113 0 18.312-8.199 18.312-18.312v-109.788zm115.512-66.088 11.97-21.594a5.41 5.41 0 0 0 -9.464-5.246l-12.272 22.139c-9.2-3.668-19.343-5.704-30.001-5.704s-20.801 2.036-30.001 5.704l-12.272-22.139a5.41 5.41 0 0 0 -9.464 5.246l11.97 21.594c-21.565 12.305-35.945 34.314-35.977 59.429h151.487c-.031-25.115-14.411-47.124-35.976-59.429z" fill="#e93d50"/><g fill="none"><circle cx="112.041" cy="86.89" r="6.326"/><circle cx="181.959" cy="86.89" r="6.326"/></g></svg>