<svg enable-background="new 0 0 200 200" viewBox="0 0 200 200" xmlns="http://www.w3.org/2000/svg" xmlns:xlink="http://www.w3.org/1999/xlink"><filter id="a" filterUnits="userSpaceOnUse" height="172.3" width="153.5" x="38.5" y="26.7"><feColorMatrix values="1 0 0 0 0 0 1 0 0 0 0 0 1 0 0 0 0 0 1 0"/></filter><linearGradient id="b"><stop offset="0" stop-color="#00b4db"/><stop offset="1" stop-color="#0083b0"/></linearGradient><linearGradient id="c" gradientTransform="matrix(.97412607 -.22600529 .22600529 .97412607 -144.538069 -5.358746)" gradientUnits="userSpaceOnUse" x1="296.142" x2="313.222" xlink:href="#b" y1="141.23" y2="141.23"/><linearGradient id="d" gradientTransform="matrix(.97412607 -.22600529 .22600529 .97412607 -144.538069 -5.358746)" gradientUnits="userSpaceOnUse" x1="284.195" x2="301.275" xlink:href="#b" y1="109.97" y2="109.97"/><linearGradient id="e" gradientUnits="userSpaceOnUse" x1="23.335" x2="145.58" y1="87.192" y2="87.192"><stop offset="0" stop-color="#f76148"/><stop offset="1" stop-color="#ee4e4e"/></linearGradient><mask id="f" height="172.3" maskUnits="userSpaceOnUse" width="153.5" x="38.5" y="26.7"><g filter="url(#a)"><path d="m115.3 199h76.7v-172.3h-153.5v172.3z" fill="#fff"/></g></mask><circle cx="184.2" cy="63.4" fill="url(#c)" r="8.5"/><circle cx="165.5" cy="35.6" fill="url(#d)" r="8.5"/><path d="m57.7 134.8-25.8-27.9c-12.1-13.2-11.3-33.7 1.8-45.8l27.9-25.8c13.2-12.1 25.8-5 37.9 8.1l11.5 11.8 28.2 9.5c12.1 13.2 5.3 33.9-7.8 46l-27.9 25.8c-13.1 12.3-33.7 11.5-45.8-1.7z" fill="url(#e)"/><g fill="#2a3042"><path d="m79.5 81.2c.4.2.9.5 1.2.8-.3-.3-.7-.6-1.2-.8"/><path d="m81.4 70.5c0-.1.1-.2.2-.3-.1.1-.1.2-.2.3"/><path d="m78.1 80.6c.5.2 1 .4 1.4.7-.4-.2-.9-.5-1.4-.7"/><path d="m75.8 80.3c.9 0 1.6.2 2.4.5-.8-.3-1.6-.5-2.4-.5"/><path d="m90.2 79.4-5-4.9 5 4.9c.3.3.7.5 1.1.5-.3 0-.8-.2-1.1-.5"/><path d="m92.6 77.2-7.7-7.7z"/><path d="m83.5 69c-.5 0-1 .2-1.3.6 0 .1-.1.1-.1.2 0-.1.1-.1.1-.2.3-.4.8-.6 1.3-.6"/><path d="m66.8 89.5c0-5 3.8-9 8.7-9.1-5 .1-8.7 4.1-8.7 9.1 0 5.1 4.2 9.2 9.3 9.2-5.1-.1-9.3-4.2-9.3-9.2"/><path d="m105.7 119.6c0 .2-.2.3-.3.3h-51c-.2 0-.3-.2-.3-.3v-73.5c0-.2.2-.3.3-.3h50.9c.2 0 .3.2.3.3v73.5zm4.4-73.5c0-2.6-2.1-4.7-4.7-4.7h-51c-2.6 0-4.7 2.1-4.7 4.7v73.5c0 2.6 2.1 4.7 4.7 4.7h50.9c2.6 0 4.7-2.1 4.7-4.7v-73.5z"/><path d="m79.9 129.6c-2.9 0-5.3 2.4-5.3 5.3s2.4 5.3 5.3 5.3 5.3-2.4 5.3-5.3-2.4-5.3-5.3-5.3"/><path d="m154.2 71.4c-.6.1-1.2-.4-1.3-1 0-.4.1-.7.2-.9.1-.1.4-.4.8-.4l17.1-2c.1.8.3 1.6.6 2.3zm22.9-.1c-1.5-1.2-2.4-2.9-2.7-4.7-.2-1.9.3-3.7 1.5-5.2s2.9-2.4 4.8-2.7h.8c3.6 0 6.6 2.7 7.1 6.3.5 3.9-2.3 7.4-6.2 7.9-2 .1-3.8-.4-5.3-1.6zm-40.3 34.8v-17c0-.8.7-1.4 1.5-1.4s1.5.6 1.5 1.4v17.1c0 .8-.7 1.4-1.5 1.4s-1.5-.7-1.5-1.5zm-53.6 59.6c2.2 11.7 1.8 20.2-1.4 24.7-1.8 2.5-4.5 3.8-8.2 3.8-4.7 0-8.4-1.4-11.2-4.4-4.9-5.1-5.6-13.5-5.7-17.1 2.4-1 4.1-3.3 4.1-6v-16.7h18.2c.9 2.4 2.9 8.8 4.2 15.7zm34.2-23.7c0 2-1.6 3.6-3.7 3.6h-67.2c-2 0-3.7-1.6-3.7-3.6v-104.2c0-2 1.6-3.6 3.7-3.6h67.2c2 0 3.7 1.6 3.7 3.6zm-64.8 6.6h3.4v18.1c0 .9-.8 1.6-1.7 1.6s-1.7-.7-1.7-1.6zm91.2-91.1 10.7-13.8c.5.6 1.1 1.2 1.7 1.7l-10.6 13.6c-.4.5-1.2.6-1.7.2-.3-.3-.4-.6-.4-.8s0-.5.3-.9zm18-27.4c.3 0 .6-.1.9-.1 1.6 0 3.1.5 4.3 1.5 1.5 1.2 2.5 2.8 2.7 4.7s-.3 3.7-1.4 5.2c-1.2 1.5-2.8 2.5-4.7 2.7s-3.8-.3-5.3-1.4c-1.5-1.2-2.5-2.8-2.7-4.7s.3-3.7 1.4-5.2c1.2-1.5 2.9-2.4 4.8-2.7zm30.1 34.4c-.7-5.7-5.9-9.9-11.7-9.2-2.8.3-5.3 1.7-7 3.9-.7.9-1.2 1.8-1.6 2.9l-18.2 2.1c-1.6.2-3 1-4 2.3-.5.6-.8 1.3-1 2-4.8.8-8 4.2-9.9 7.9 0-2.9 1-7.1 4.7-12.4.5.1 1.1.2 1.6.2 1.8 0 3.6-.8 4.8-2.3l11.2-14.5c.6.1 1.3.2 1.9.2 3.2 0 6.3-1.4 8.3-4.1 3.6-4.6 2.7-11.2-1.9-14.7s-11.2-2.7-14.8 1.9c-1.7 2.2-2.5 5-2.1 7.7v.2l-12.4 15.9c-1 1.3-1.4 2.9-1.2 4.5.1.7.3 1.3.6 2-8.1 11.6-6 19.2-4 22.6-2 1.1-3.3 3.1-3.3 5.5v17.1c0 2.7 1.7 4.9 4.1 5.8 1.7 26-.4 41.4-6.6 48.4-3 3.4-7.1 5-12.9 5.3-10.9 0-13.8-10.4-14.6-15.7h11.5c4.4 0 7.9-3.6 7.9-8v-104.5c0-4.4-3.4-7.8-7.9-7.8h-67c-4.4 0-7.9 3.3-7.9 7.8v104.5c0 4.4 3.4 8 7.9 8h1.4v16.7c0 2.7 1.7 5 4.1 6 .1 4.3 1 14 7.1 20.4 3.7 3.9 8.7 5.9 14.7 5.9 5.4 0 9.5-2 12.2-5.8 7.7-11 1.1-34.9-1.7-43.1h12.8c.3 1.9.9 5.3 2.3 8.4 3.3 7.9 9.3 12 17.3 12h.1l.1.1c7.2-.3 12.5-2.5 16.4-6.9 7.2-8.1 9.7-24.2 7.9-51.8 2.1-1 3.6-3.1 3.6-5.6v-17.2c0-2.4-1.4-4.5-3.5-5.6.2-1.1.8-3.3 1.9-5.3 1.5-2.8 3.4-4.3 5.9-4.8 1.1 1.8 3 2.9 5.2 2.9h.7l20.1-2.4.1.1c1.9 1.5 4.1 2.3 6.5 2.3.4 0 .8 0 1.3-.1 5.6-.7 9.7-5.9 9-11.7z" mask="url(#f)"/><path d="m90 78.8c.3.3.7.5 1.2.5.4 0 .9-.2 1.2-.5.6-.6.7-1.5.3-2.1-.1-.1-.1-.2-.2-.3l-8-8c-.4-.2-.9-.4-1.5-.4-.5 0-1.1.2-1.4.5l-.1.1-.3.3c-.1.1-.2.2-.2.3-.1.1-.1.2-.1.2-.1.1-.1.2-.1.4v12.2c-.2-.2-.4-.3-.6-.5-.4-.3-.8-.6-1.3-.8s-.9-.4-1.4-.6c-.8-.2-1.6-.3-2.5-.3h-.3c-5.1.2-9 4.3-9 9.5s4.4 9.5 9.6 9.5c4.9 0 9-3.8 9.4-8.6v-16.4h.1z"/></g></svg>