<svg viewBox="0 0 320.696 356" xmlns="http://www.w3.org/2000/svg"><path d="m281.4 261.791c-4.537 10.481-9.907 20.129-16.129 28.999-8.481 12.092-15.425 20.462-20.777 25.11-8.296 7.629-17.185 11.537-26.703 11.759-6.833 0-15.074-1.944-24.666-5.889-9.624-3.926-18.468-5.87-26.555-5.87-8.481 0-17.577 1.944-27.307 5.87-9.744 3.944-17.594 6-23.596 6.204-9.128.389-18.225-3.63-27.307-12.074-5.796-5.055-13.046-13.722-21.731-25.999-9.318-13.111-16.979-28.314-22.981-45.647-6.426-18.721-9.648-36.85-9.648-54.401 0-20.105 4.344-37.445 13.046-51.976 6.839-11.672 15.937-20.879 27.323-27.638 11.387-6.759 23.69-10.203 36.94-10.424 7.25 0 16.757 2.243 28.571 6.65 11.781 4.422 19.346 6.665 22.662 6.665 2.48 0 10.883-2.622 25.129-7.85 13.472-4.848 24.842-6.855 34.156-6.065 25.24 2.037 44.202 11.987 56.813 29.912-22.573 13.677-33.74 32.834-33.518 57.409.204 19.142 7.148 35.071 20.796 47.719 6.185 5.87 13.092 10.407 20.777 13.629a224.328 224.328 0 0 1 -5.295 13.907zm-57.887-227.789c0 15.003-5.481 29.012-16.407 41.978-13.185 15.414-29.132 24.321-46.426 22.916-.22-1.8-.348-3.694-.348-5.685 0-14.403 6.27-29.818 17.405-42.421 5.559-6.381 12.629-11.687 21.203-15.92 8.555-4.17 16.648-6.475 24.259-6.87.221 2.006.314 4.012.314 6.002z" fill="#e93d50"/></svg>