<svg height="157" viewBox="0 0 96 157" width="96" xmlns="http://www.w3.org/2000/svg" xmlns:xlink="http://www.w3.org/1999/xlink"><linearGradient id="a"><stop offset="0" stop-color="#f76148"/><stop offset="1" stop-color="#ee4e4e"/></linearGradient><linearGradient id="b" x1="100%" x2="0%" xlink:href="#a" y1="50%" y2="50%"/><linearGradient id="c" x1="0%" y1="50%" y2="50%"><stop offset="0" stop-color="#00b4db"/><stop offset="1" stop-color="#0083b0"/></linearGradient><linearGradient id="d" x1="-.521%" x2="99.891%" xlink:href="#a" y1="50%" y2="50%"/><linearGradient id="e" x1="-.792%" x2="99.62%" xlink:href="#a" y1="50%" y2="50%"/><linearGradient id="f" x1="0%" x2="100.411%" xlink:href="#a" y1="50%" y2="50%"/><g fill="none" fill-rule="evenodd"><path d="m5.155 80.327c-18.152 21.075 15.399 57.673 42.24 57.673 26.839 0 48.605-21.942 48.605-49s-21.765-49-48.606-49c-26.84 0-15.915 12.835-42.24 40.327z" fill="url(#b)"/><path d="m93.536 69.308-1.62-.701a13.941 13.941 0 0 0 -11.09-.176 14.648 14.648 0 0 0 -7.848 8.061l-2.9 7.273v-74.302c0-5.257-4.095-9.463-9.213-9.463s-9.213 4.206-9.213 9.463v37.501a8.905 8.905 0 0 0 -4.948-1.49c-3.838 0-7.25 2.454-8.615 6.047-1.621-1.227-3.583-1.928-5.63-1.928-1.792 0-3.498.526-5.033 1.49v-19.54c0-5.257-4.095-9.463-9.213-9.463-5.118 0-9.213 4.206-9.213 9.463v81.662c0 3.593 8.36 13.581 11.857 15.684v23.044h-.512v3.067h47.088v-20.415c1.962-1.753 5.545-8.15 6.228-9.639l21.155-52.484c.512-1.227-.085-2.629-1.28-3.154zm-24.908 54.762-.256.526s-1.45 4.206-4.095 6.396c-.768.35-1.28 1.14-1.28 2.19v18.839h-37.703v-24.709c0-1.139-.682-2.103-1.62-2.366-2.048-.613-9.725-9.9-9.725-11.74v-81.664c0-2.54 2.047-4.556 4.435-4.556 2.474 0 4.436 2.015 4.436 4.556v32.683c0 .788.256 1.49.853 1.927.597.438 1.365.614 2.048.438 0-.087.085-.087.17-.087h.17c1.024-.176 1.792-1.227 1.792-2.366v-5.082c0-2.541 2.048-4.556 4.436-4.556 2.474 0 4.436 2.015 4.436 4.556v2.366c0 .613.341 1.314.938 1.84.512.438 1.28.613 1.962.525l.597-.087a2.415 2.415 0 0 0 2.048-2.366v-6.396c0-2.541 2.047-4.556 4.435-4.556 2.474 0 4.436 2.015 4.436 4.556v3.943c0 .7.256 1.314.683 1.752.512.526 1.109.701 1.706.701h.426c.597 0 1.11-.263 1.621-.7.427-.439.597-1.052.597-1.753v-49.33c0-2.454 2.133-4.557 4.692-4.557s4.692 2.103 4.692 4.557v86.656c0 1.139.682 2.103 1.791 2.366 1.024.175 2.133-.438 2.56-1.49l7.506-18.663c1.024-2.453 2.9-4.381 5.289-5.345 2.218-.876 4.692-.876 6.91-.087l-20.987 51.083z" fill="#2a3042" fill-rule="nonzero"/><path d="m74.397 156h-50.794c-6.36 0-11.603-5.354-11.603-11.85v-4.3c0-6.496 5.243-11.85 11.603-11.85h50.794c6.36 0 11.603 5.354 11.603 11.85v4.3c0 6.496-5.243 11.85-11.603 11.85" fill="url(#c)"/><path d="m20.168 128.892c-5.323 0-9.617 4.324-9.617 9.686v4.238c0 5.362 4.294 9.687 9.617 9.687h50.75c5.323 0 9.617-4.325 9.617-9.687v-4.238c0-5.362-4.294-9.686-9.618-9.686zm50.75 27.676h-50.75c-7.47 0-13.567-6.141-13.567-13.665v-4.238c0-7.524 6.097-13.665 13.567-13.665h50.75c7.47 0 13.567 6.14 13.567 13.665v4.238c0 7.524-6.097 13.665-13.568 13.665z" fill="#2a3042" fill-rule="nonzero"/><path d="m33 140.5c0 2.531-2.063 4.5-4.5 4.5-2.438 0-4.5-2.063-4.5-4.5 0-2.438 2.063-4.5 4.5-4.5 2.438 0 4.5 1.969 4.5 4.5" fill="url(#d)"/><path d="m28.5 137.532a2.944 2.944 0 0 0 -2.968 2.968 2.944 2.944 0 0 0 2.968 2.968 2.944 2.944 0 0 0 2.968-2.968c0-1.659-1.397-2.968-2.968-2.968m0 8.468c-2.968 0-5.5-2.444-5.5-5.5s2.444-5.5 5.5-5.5 5.5 2.444 5.5 5.5-2.532 5.5-5.5 5.5" fill="#2a3042" fill-rule="nonzero"/><path d="m50 140.5c0 2.531-2.063 4.5-4.5 4.5-2.438 0-4.5-2.063-4.5-4.5 0-2.438 2.063-4.5 4.5-4.5 2.438 0 4.5 1.969 4.5 4.5" fill="url(#e)"/><path d="m45.5 137.532a2.944 2.944 0 0 0 -2.968 2.968 2.944 2.944 0 0 0 2.968 2.968 2.944 2.944 0 0 0 2.968-2.968 2.944 2.944 0 0 0 -2.968-2.968m0 8.468c-2.968 0-5.5-2.444-5.5-5.5s2.444-5.5 5.5-5.5 5.5 2.444 5.5 5.5-2.444 5.5-5.5 5.5" fill="#2a3042" fill-rule="nonzero"/><path d="m64 140.5c0 2.531-2.063 4.5-4.5 4.5-2.438 0-4.5-2.063-4.5-4.5 0-2.438 2.063-4.5 4.5-4.5 2.438 0 4.5 1.969 4.5 4.5" fill="url(#f)"/><path d="m59.5 137.532a2.944 2.944 0 0 0 -2.968 2.968 2.944 2.944 0 0 0 2.968 2.968 2.944 2.944 0 0 0 2.968-2.968 2.944 2.944 0 0 0 -2.968-2.968m0 8.468c-2.968 0-5.5-2.444-5.5-5.5s2.444-5.5 5.5-5.5c2.968 0 5.5 2.444 5.5 5.5s-2.444 5.5-5.5 5.5m-19.404-45.699c.353 0 .706.087 1.06.262l6.442 3.408-1.235-7.165c-.089-.7.088-1.398.617-1.923l5.208-5.067-7.238-1.049c-.706-.087-1.324-.524-1.677-1.223l-3.265-6.466-3.266 6.466c-.353.611-.971 1.048-1.677 1.223l-7.238 1.049 5.208 5.067c.53.525.794 1.224.618 1.923l-1.236 7.165 6.443-3.408c.53-.175.883-.262 1.236-.262m-10.416 9.699c-.442 0-.883-.175-1.324-.437-.706-.524-.971-1.31-.883-2.097l1.765-10.31-7.59-7.34c-.618-.612-.795-1.399-.53-2.185s.971-1.398 1.765-1.485l10.504-1.486 4.678-9.437c.353-.699 1.147-1.223 1.942-1.223.794 0 1.588.437 1.941 1.223l4.678 9.437 10.504 1.486c.794.087 1.5.699 1.765 1.485s0 1.66-.53 2.185l-7.59 7.34 1.765 10.31a1.996 1.996 0 0 1 -.883 2.097c-.706.524-1.588.524-2.294.175l-9.356-4.893-9.356 4.893c-.265.175-.618.262-.971.262" fill="#2a3042" fill-rule="nonzero"/></g></svg>